<svg viewBox="0 0 512 512" xmlns="http://www.w3.org/2000/svg" role="img" aria-label="timeseries-explorer icon">
  <defs>
    <linearGradient id="bg" x1="0" y1="0" x2="0" y2="1">
      <stop offset="0" stop-color="#16294A"/>
      <stop offset="1" stop-color="#0C1626"/>
    </linearGradient>
    <radialGradient id="glow" cx="0.5" cy="0.42" r="0.7">
      <stop offset="0" stop-color="#1E3A63" stop-opacity="0.55"/>
      <stop offset="1" stop-color="#0C1626" stop-opacity="0"/>
    </radialGradient>
    <clipPath id="round">
      <rect x="0" y="0" width="512" height="512" rx="112" ry="112"/>
    </clipPath>
    <clipPath id="lens">
      <circle cx="366" cy="322" r="75"/>
    </clipPath>
    <filter id="soft" x="-20%" y="-20%" width="140%" height="140%">
      <feDropShadow dx="0" dy="3" stdDeviation="4" flood-color="#000000" flood-opacity="0.35"/>
    </filter>
  </defs>

  <g clip-path="url(#round)">
    <rect x="0" y="0" width="512" height="512" fill="url(#bg)"/>
    <rect x="0" y="0" width="512" height="512" fill="url(#glow)"/>

    <!-- subtle grid -->
    <g stroke="#5B7BB0" stroke-width="1" opacity="0.16">
      <line x1="44.0" y1="44" x2="44.0" y2="468"/>
      <line x1="44" y1="44.0" x2="468" y2="44.0"/>
      <line x1="114.7" y1="44" x2="114.7" y2="468"/>
      <line x1="44" y1="114.7" x2="468" y2="114.7"/>
      <line x1="185.3" y1="44" x2="185.3" y2="468"/>
      <line x1="44" y1="185.3" x2="468" y2="185.3"/>
      <line x1="256.0" y1="44" x2="256.0" y2="468"/>
      <line x1="44" y1="256.0" x2="468" y2="256.0"/>
      <line x1="326.7" y1="44" x2="326.7" y2="468"/>
      <line x1="44" y1="326.7" x2="468" y2="326.7"/>
      <line x1="397.3" y1="44" x2="397.3" y2="468"/>
      <line x1="44" y1="397.3" x2="468" y2="397.3"/>
      <line x1="468.0" y1="44" x2="468.0" y2="468"/>
      <line x1="44" y1="468.0" x2="468" y2="468.0"/>
    </g>

    <!-- curves -->
    <g fill="none" stroke-linecap="round" filter="url(#soft)">
      <path d="M 38.00 254.18 C 47.08 253.25 74.33 242.29 92.50 248.61 C 110.67 254.93 128.83 276.36 147.00 292.12 C 165.17 307.88 183.33 333.01 201.50 343.16 C 219.67 353.30 237.83 358.14 256.00 352.98 C 274.17 347.82 292.33 327.74 310.50 312.20 C 328.67 296.67 346.83 270.85 365.00 259.78 C 383.17 248.70 401.33 241.80 419.50 245.76 C 437.67 249.72 464.92 277.25 474.00 283.55 " stroke="#FB923C" stroke-width="8" opacity="0.95"/>
      <path d="M 38.00 295.66 C 47.08 286.46 74.33 259.32 92.50 240.49 C 110.67 221.67 128.83 196.76 147.00 182.70 C 165.17 168.64 183.33 157.19 201.50 156.13 C 219.67 155.07 237.83 163.78 256.00 176.34 C 274.17 188.91 292.33 212.68 310.50 231.51 C 328.67 250.33 346.83 275.24 365.00 289.30 C 383.17 303.36 401.33 314.81 419.50 315.87 C 437.67 316.93 464.92 299.03 474.00 295.66 "   stroke="#2DD4BF"   stroke-width="8"/>
      <path d="M 38.00 308.00 C 39.51 306.20 44.06 302.20 47.08 297.20 C 50.11 292.19 53.14 285.38 56.17 277.99 C 59.19 270.61 62.22 261.77 65.25 252.88 C 68.28 243.98 71.31 234.10 74.33 224.62 C 77.36 215.14 80.39 205.18 83.42 196.01 C 86.44 186.84 89.47 177.68 92.50 169.59 C 95.53 161.51 98.56 153.88 101.58 147.48 C 104.61 141.09 107.64 135.52 110.67 131.22 C 113.69 126.92 116.72 123.70 119.75 121.67 C 122.78 119.64 125.81 118.84 128.83 119.04 C 131.86 119.25 134.89 120.69 137.92 122.90 C 140.94 125.11 143.97 128.47 147.00 132.30 C 150.03 136.13 153.06 140.92 156.08 145.87 C 159.11 150.83 162.14 156.50 165.17 162.04 C 168.19 167.58 171.22 173.54 174.25 179.13 C 177.28 184.71 180.31 190.41 183.33 195.54 C 186.36 200.67 189.39 205.64 192.42 209.91 C 195.44 214.18 198.47 218.04 201.50 221.16 C 204.53 224.27 207.56 226.80 210.58 228.60 C 213.61 230.39 216.64 231.49 219.67 231.93 C 222.69 232.37 225.72 232.08 228.75 231.26 C 231.78 230.44 234.81 228.91 237.83 227.03 C 240.86 225.14 243.89 222.63 246.92 219.94 C 249.94 217.25 252.97 214.07 256.00 210.89 C 259.03 207.71 262.06 204.21 265.08 200.87 C 268.11 197.53 271.14 194.04 274.17 190.84 C 277.19 187.65 280.22 184.48 283.25 181.70 C 286.28 178.91 289.31 176.31 292.33 174.15 C 295.36 171.99 298.39 170.13 301.42 168.72 C 304.44 167.31 307.47 166.28 310.50 165.67 C 313.53 165.06 316.56 164.89 319.58 165.06 C 322.61 165.23 325.64 165.84 328.67 166.70 C 331.69 167.56 334.72 168.82 337.75 170.23 C 340.78 171.64 343.81 173.38 346.83 175.16 C 349.86 176.95 352.89 178.97 355.92 180.93 C 358.94 182.90 361.97 184.99 365.00 186.95 C 368.03 188.90 371.06 190.89 374.08 192.66 C 377.11 194.44 380.14 196.14 383.17 197.60 C 386.19 199.05 389.22 200.36 392.25 201.40 C 395.28 202.43 398.31 203.26 401.33 203.83 C 404.36 204.40 407.39 204.72 410.42 204.82 C 413.44 204.91 416.47 204.75 419.50 204.41 C 422.53 204.06 425.56 203.47 428.58 202.77 C 431.61 202.06 434.64 201.14 437.67 200.16 C 440.69 199.18 443.72 198.04 446.75 196.91 C 449.78 195.78 452.81 194.54 455.83 193.36 C 458.86 192.18 461.89 190.96 464.92 189.85 C 467.94 188.74 472.49 187.22 474.00 186.69 "   stroke="#22D3EE"   stroke-width="8"/>
    </g>

    <!-- magnified region: brighter slice of curves inside lens -->
    <g clip-path="url(#lens)">
      <circle cx="366" cy="322" r="78" fill="#0C1626" fill-opacity="0.35"/>
      <g fill="none" stroke-linecap="round" stroke-width="9">
        <path d="M 38.00 295.66 C 47.08 286.46 74.33 259.32 92.50 240.49 C 110.67 221.67 128.83 196.76 147.00 182.70 C 165.17 168.64 183.33 157.19 201.50 156.13 C 219.67 155.07 237.83 163.78 256.00 176.34 C 274.17 188.91 292.33 212.68 310.50 231.51 C 328.67 250.33 346.83 275.24 365.00 289.30 C 383.17 303.36 401.33 314.81 419.50 315.87 C 437.67 316.93 464.92 299.03 474.00 295.66 "   stroke="#2DD4BF"/>
        <path d="M 38.00 308.00 C 39.51 306.20 44.06 302.20 47.08 297.20 C 50.11 292.19 53.14 285.38 56.17 277.99 C 59.19 270.61 62.22 261.77 65.25 252.88 C 68.28 243.98 71.31 234.10 74.33 224.62 C 77.36 215.14 80.39 205.18 83.42 196.01 C 86.44 186.84 89.47 177.68 92.50 169.59 C 95.53 161.51 98.56 153.88 101.58 147.48 C 104.61 141.09 107.64 135.52 110.67 131.22 C 113.69 126.92 116.72 123.70 119.75 121.67 C 122.78 119.64 125.81 118.84 128.83 119.04 C 131.86 119.25 134.89 120.69 137.92 122.90 C 140.94 125.11 143.97 128.47 147.00 132.30 C 150.03 136.13 153.06 140.92 156.08 145.87 C 159.11 150.83 162.14 156.50 165.17 162.04 C 168.19 167.58 171.22 173.54 174.25 179.13 C 177.28 184.71 180.31 190.41 183.33 195.54 C 186.36 200.67 189.39 205.64 192.42 209.91 C 195.44 214.18 198.47 218.04 201.50 221.16 C 204.53 224.27 207.56 226.80 210.58 228.60 C 213.61 230.39 216.64 231.49 219.67 231.93 C 222.69 232.37 225.72 232.08 228.75 231.26 C 231.78 230.44 234.81 228.91 237.83 227.03 C 240.86 225.14 243.89 222.63 246.92 219.94 C 249.94 217.25 252.97 214.07 256.00 210.89 C 259.03 207.71 262.06 204.21 265.08 200.87 C 268.11 197.53 271.14 194.04 274.17 190.84 C 277.19 187.65 280.22 184.48 283.25 181.70 C 286.28 178.91 289.31 176.31 292.33 174.15 C 295.36 171.99 298.39 170.13 301.42 168.72 C 304.44 167.31 307.47 166.28 310.50 165.67 C 313.53 165.06 316.56 164.89 319.58 165.06 C 322.61 165.23 325.64 165.84 328.67 166.70 C 331.69 167.56 334.72 168.82 337.75 170.23 C 340.78 171.64 343.81 173.38 346.83 175.16 C 349.86 176.95 352.89 178.97 355.92 180.93 C 358.94 182.90 361.97 184.99 365.00 186.95 C 368.03 188.90 371.06 190.89 374.08 192.66 C 377.11 194.44 380.14 196.14 383.17 197.60 C 386.19 199.05 389.22 200.36 392.25 201.40 C 395.28 202.43 398.31 203.26 401.33 203.83 C 404.36 204.40 407.39 204.72 410.42 204.82 C 413.44 204.91 416.47 204.75 419.50 204.41 C 422.53 204.06 425.56 203.47 428.58 202.77 C 431.61 202.06 434.64 201.14 437.67 200.16 C 440.69 199.18 443.72 198.04 446.75 196.91 C 449.78 195.78 452.81 194.54 455.83 193.36 C 458.86 192.18 461.89 190.96 464.92 189.85 C 467.94 188.74 472.49 187.22 474.00 186.69 "   stroke="#22D3EE"/>
        <path d="M 38.00 254.18 C 47.08 253.25 74.33 242.29 92.50 248.61 C 110.67 254.93 128.83 276.36 147.00 292.12 C 165.17 307.88 183.33 333.01 201.50 343.16 C 219.67 353.30 237.83 358.14 256.00 352.98 C 274.17 347.82 292.33 327.74 310.50 312.20 C 328.67 296.67 346.83 270.85 365.00 259.78 C 383.17 248.70 401.33 241.80 419.50 245.76 C 437.67 249.72 464.92 277.25 474.00 283.55 " stroke="#FB923C"/>
      </g>
    </g>

    <!-- data points (on top, so points over the lens keep the hollow center) -->
    <g>
      <circle cx="38.00" cy="254.18" r="6" fill="#0F1E33" stroke="#FB923C" stroke-width="3.4"/>
      <circle cx="147.00" cy="292.12" r="6" fill="#0F1E33" stroke="#FB923C" stroke-width="3.4"/>
      <circle cx="256.00" cy="352.98" r="6" fill="#0F1E33" stroke="#FB923C" stroke-width="3.4"/>
      <circle cx="365.00" cy="259.78" r="6" fill="#0F1E33" stroke="#FB923C" stroke-width="3.4"/>
      <circle cx="474.00" cy="283.55" r="6" fill="#0F1E33" stroke="#FB923C" stroke-width="3.4"/>
      <circle cx="38.00" cy="295.66" r="6" fill="#0F1E33" stroke="#2DD4BF" stroke-width="3.4"/>
      <circle cx="147.00" cy="182.70" r="6" fill="#0F1E33" stroke="#2DD4BF" stroke-width="3.4"/>
      <circle cx="256.00" cy="176.34" r="6" fill="#0F1E33" stroke="#2DD4BF" stroke-width="3.4"/>
      <circle cx="365.00" cy="289.30" r="6" fill="#0F1E33" stroke="#2DD4BF" stroke-width="3.4"/>
      <circle cx="474.00" cy="295.66" r="6" fill="#0F1E33" stroke="#2DD4BF" stroke-width="3.4"/>
      <circle cx="38.00" cy="308.00" r="6" fill="#0F1E33" stroke="#22D3EE" stroke-width="3.4"/>
      <circle cx="110.67" cy="131.22" r="6" fill="#0F1E33" stroke="#22D3EE" stroke-width="3.4"/>
      <circle cx="183.33" cy="195.54" r="6" fill="#0F1E33" stroke="#22D3EE" stroke-width="3.4"/>
      <circle cx="256.00" cy="210.89" r="6" fill="#0F1E33" stroke="#22D3EE" stroke-width="3.4"/>
      <circle cx="328.67" cy="166.70" r="6" fill="#0F1E33" stroke="#22D3EE" stroke-width="3.4"/>
      <circle cx="401.33" cy="203.83" r="6" fill="#0F1E33" stroke="#22D3EE" stroke-width="3.4"/>
      <circle cx="474.00" cy="186.69" r="6" fill="#0F1E33" stroke="#22D3EE" stroke-width="3.4"/>
    </g>
  </g>

  <!-- magnifying glass ring + handle -->
  <g filter="url(#soft)">
    <circle cx="366" cy="322" r="78" fill="none" stroke="#E8F4FF" stroke-width="10"/>
    <circle cx="366" cy="322" r="69" fill="none" stroke="#7FB2E0" stroke-width="2" opacity="0.5"/>
    <line x1="422.2" y1="378.2" x2="469.0" y2="425.0"
          stroke="#E8F4FF" stroke-width="17" stroke-linecap="round"/>
  </g>
</svg>